<svg xmlns="http://www.w3.org/2000/svg" width="914.81" height="914.81" viewBox="114 39.194764550181915 914.805235449818 914.805235449818">
<g>
<path d="M 510.82 938.33 C502.94,929.71 485.70,910.91 472.50,896.56 C459.30,882.21 441.10,862.38 432.05,852.48 C423.00,842.59 412.43,831.12 408.55,826.99 C404.67,822.86 394.30,811.64 385.50,802.07 C376.70,792.49 365.22,780.12 360.00,774.58 C354.77,769.03 348.76,762.47 346.64,760.00 C340.57,752.90 319.75,729.96 305.13,714.26 L 291.76 699.91 L 307.64 683.70 C316.37,674.79 327.75,662.89 332.93,657.25 C338.11,651.61 342.89,647.00 343.55,647.00 C345.00,647.00 353.23,655.62 374.63,679.56 C383.50,689.49 394.97,702.12 400.13,707.64 C405.28,713.16 418.50,727.52 429.50,739.56 C440.50,751.59 452.65,764.84 456.50,769.00 C460.35,773.15 473.40,787.32 485.50,800.48 C522.18,840.36 525.13,843.50 526.05,843.50 C526.53,843.50 532.23,837.61 538.71,830.41 C550.75,817.04 567.18,799.15 600.00,763.66 C610.17,752.66 621.24,740.47 624.58,736.58 C627.93,732.69 638.50,720.93 648.08,710.46 C657.66,699.99 667.64,688.90 670.25,685.80 L 675.00 680.18 L 675.00 637.34 L 675.00 594.50 L 678.12 588.50 C679.83,585.20 682.60,581.06 684.27,579.29 C690.00,573.24 692.00,573.00 736.51,573.00 L 776.66 573.00 L 783.21 565.75 C786.81,561.76 800.61,546.81 813.88,532.52 C827.14,518.23 838.00,506.23 838.00,505.86 C838.00,505.27 833.76,500.38 812.01,475.91 C804.85,467.85 788.37,448.77 785.13,444.80 L 782.77 441.89 L 809.07 415.97 C831.06,394.30 835.61,390.26 836.84,391.28 C838.24,392.43 849.02,404.71 873.00,432.44 C889.04,450.99 901.97,465.83 907.50,472.04 C910.25,475.13 915.20,480.76 918.50,484.55 C921.80,488.35 927.59,494.71 931.36,498.70 L 938.21 505.95 L 926.22 518.73 C919.62,525.75 912.03,534.03 909.36,537.13 C906.69,540.23 894.38,553.88 882.00,567.46 C848.44,604.30 837.01,617.17 834.90,620.50 C833.12,623.32 833.01,626.00 833.01,666.00 C833.01,703.97 832.82,709.03 831.25,713.47 C828.84,720.31 822.88,726.22 815.71,728.86 C810.17,730.91 808.28,731.00 770.69,731.00 L 731.45 731.00 L 724.92 737.75 C721.33,741.46 714.36,748.97 709.44,754.43 C704.53,759.89 696.45,768.69 691.50,773.98 C671.64,795.19 615.58,856.03 585.90,888.58 C558.05,919.13 533.40,946.34 530.17,950.11 C528.33,952.25 526.45,954.00 525.99,954.00 C525.52,954.00 518.70,946.95 510.82,938.33 ZM 784.76 651.75 L 784.50 621.50 L 753.75 621.24 L 723.00 620.97 L 723.00 651.49 L 723.00 682.00 L 754.01 682.00 L 785.03 682.00 L 784.76 651.75 ZM 148.75 750.31 C134.59,736.19 123.00,724.46 123.00,724.25 C123.00,724.03 131.44,715.00 141.76,704.18 C152.08,693.36 163.44,681.40 167.01,677.60 C170.58,673.81 179.35,664.58 186.50,657.10 C202.35,640.51 246.38,594.13 261.72,577.85 C271.40,567.57 321.45,515.45 381.14,453.48 C390.69,443.57 404.83,428.85 412.56,420.78 L 426.62 406.10 L 460.56 441.27 C507.32,489.73 544.12,527.00 545.20,527.00 C546.39,527.00 609.40,464.60 756.00,318.25 C863.14,211.29 875.71,199.06 877.50,200.01 C879.34,200.99 927.17,249.43 927.76,250.91 C927.95,251.38 653.34,526.24 549.02,630.00 L 544.50 634.50 L 519.50 608.99 C470.39,558.87 435.13,522.43 430.74,517.25 C429.22,515.46 427.63,514.00 427.19,514.00 C426.48,514.00 391.27,550.04 368.00,574.58 C363.33,579.51 350.29,593.21 339.04,605.02 C327.79,616.83 314.53,630.78 309.58,636.00 C304.64,641.22 296.26,650.00 290.98,655.50 C285.69,661.00 270.37,677.20 256.93,691.49 C243.49,705.79 225.52,724.72 217.00,733.57 C208.48,742.41 195.95,755.58 189.18,762.82 C182.40,770.07 176.32,776.00 175.68,775.99 C175.03,775.99 162.91,764.43 148.75,750.31 ZM 195.81 597.15 C194.58,595.41 182.06,581.60 154.49,551.58 C147.89,544.38 140.97,536.70 139.11,534.50 C137.26,532.30 130.85,525.25 124.87,518.84 C118.89,512.42 114.00,506.64 114.00,505.99 C114.00,505.34 119.06,499.29 125.25,492.55 C135.40,481.49 154.23,460.32 167.50,445.05 C170.25,441.88 177.24,433.94 183.03,427.40 C197.23,411.37 203.71,403.46 205.50,399.99 C206.77,397.54 207.00,389.83 207.01,349.80 L 207.02 302.50 L 209.39 297.50 C212.18,291.60 216.95,286.80 222.50,284.30 C226.08,282.69 230.87,282.45 268.44,282.00 L 310.39 281.50 L 317.94 272.95 C322.10,268.25 330.90,258.37 337.50,250.99 C352.34,234.41 382.03,201.06 390.90,191.02 C394.53,186.91 399.55,181.28 402.05,178.52 C404.56,175.76 411.51,167.88 417.49,161.00 C423.48,154.12 431.11,145.56 434.44,141.97 C437.77,138.38 447.70,127.16 456.50,117.05 C508.80,56.97 525.01,38.84 526.09,39.20 C526.93,39.49 560.36,77.31 575.34,94.92 C579.28,99.55 587.00,108.35 592.50,114.48 C612.19,136.43 653.14,182.81 657.52,188.11 C659.16,190.10 665.45,197.13 671.50,203.74 C688.49,222.29 696.19,230.86 700.00,235.49 C701.92,237.82 712.64,249.93 723.81,262.40 L 744.13 285.08 L 717.89 311.54 C703.45,326.09 691.37,338.00 691.04,338.00 C690.71,338.00 687.53,334.51 683.97,330.25 C680.41,325.99 675.03,319.76 672.00,316.41 C668.97,313.05 662.40,305.63 657.39,299.90 C652.38,294.18 637.98,277.87 625.39,263.66 C612.80,249.44 600.03,235.00 597.00,231.57 C593.97,228.14 584.97,217.97 577.00,208.98 C569.03,199.99 558.98,188.55 554.68,183.57 C550.38,178.58 543.33,170.45 539.01,165.50 C534.69,160.55 529.99,155.15 528.56,153.50 L 525.96 150.50 L 520.87 156.00 C518.07,159.02 510.54,167.57 504.15,175.00 C497.75,182.43 488.01,193.49 482.51,199.59 C467.54,216.18 453.07,232.49 436.00,252.00 C427.58,261.62 418.63,271.77 416.10,274.55 C413.57,277.33 408.75,282.73 405.39,286.55 C386.85,307.66 383.01,311.98 377.98,317.48 C374.95,320.79 370.58,325.81 368.27,328.63 L 364.08 333.76 L 363.79 377.13 L 363.50 420.50 L 360.84 425.50 C357.63,431.55 353.84,435.29 348.50,437.70 C344.95,439.30 340.32,439.56 307.29,440.00 L 270.08 440.50 L 257.29 455.05 C243.76,470.44 236.04,479.13 221.65,495.15 L 212.80 505.01 L 223.63 516.75 C229.59,523.21 237.74,531.98 241.73,536.24 C245.73,540.50 249.00,544.46 249.00,545.06 C249.00,545.65 242.14,553.19 233.75,561.82 C225.36,570.44 214.04,582.34 208.59,588.25 C203.15,594.16 198.34,599.00 197.90,599.00 C197.47,599.00 196.53,598.17 195.81,597.15 ZM 315.34 389.81 C315.65,388.61 315.82,374.77 315.71,359.06 L 315.50 330.50 L 285.00 330.50 L 254.50 330.50 L 254.57 332.75 C254.61,333.99 254.72,347.83 254.82,363.50 L 255.00 392.00 L 284.88 392.00 L 314.77 392.00 L 315.34 389.81 Z" fill="rgb(252,252,251)"/>
</g>
</svg>